<?xml version="1.0" encoding="utf-8" ?><svg xmlns="http://www.w3.org/2000/svg" xmlns:xlink="http://www.w3.org/1999/xlink" width="1024" height="1024" viewBox="0 0 1024 1024"><path fill="#101022" d="M0 0L1024 0L1024 1024L0 1024L0 0Z"/><defs><linearGradient id="gradient_0" gradientUnits="userSpaceOnUse" x1="764.81396" y1="580.04321" x2="520.05609" y2="325.99365"><stop offset="0" stop-color="#754AD6"/><stop offset="1" stop-color="#2290ED"/></linearGradient></defs><path fill="url(#gradient_0)" d="M191.025 288.099C189.121 286.297 187.067 283.848 185.407 281.865C165.333 257.884 134.499 244.344 103.375 244.506C100.105 244.523 97.186 247.855 93.7396 246.49C89.4701 244.798 90.8337 237.678 95.1371 237.111C97.2675 236.852 99.4707 239.189 100.977 240.517C107.84 240.86 114.703 240.494 121.68 240.922C129.171 240.407 140.92 240.776 148.669 240.811C155.602 240.841 166.669 240.521 173.346 240.997C177.94 240.401 186.467 240.852 191.401 240.875C210.066 240.96 228.474 239.886 246.827 243.819C248.129 244.098 258.341 241.95 260.587 241.662C274.778 239.848 289.19 240.935 302.948 244.858C318.807 239.481 351.657 240.553 368.681 240.66C384.157 240.539 399.634 240.508 415.11 240.567C422.432 240.573 432.601 240.265 439.736 240.645L440.257 240.708C444.275 241.161 449.242 241.178 453.351 241.294C449.646 241.727 447.113 241.625 443.362 241.538C442.254 243.309 442.771 243.865 442 245.507C414.184 248.337 390.271 262.257 372.706 283.78C368.825 288.557 365.249 293.574 362.002 298.803C376.063 322.833 388.923 350.689 402.255 375.673C406.841 376.126 410.877 376.892 410.55 382.627C410.478 383.889 409.508 386.786 409.042 388.113C411.655 394.482 416.009 402.869 419.014 408.831C427.852 426.406 436.782 443.935 445.805 461.416C450.722 470.9 457.334 482.687 461.646 492.099C465.945 499.87 464.987 497.033 472.527 501.069C477.021 503.474 474.137 509.306 471.767 512.233C484.828 537.807 498.063 563.291 511.472 588.684C524.948 563.734 537.58 538.325 550.919 513.258C545.266 506.419 548.525 498.663 557.953 499.015C559.632 495.767 561.788 491.277 563.766 488.334C565.733 483.89 568.3 478.878 570.596 474.577C585.774 446.144 599.001 416.26 614.561 388.085C612.333 386.728 609.942 382.163 612.038 379.684C615.311 375.814 616.474 375.067 621.138 374.327L622.128 372.945C622.892 374.279 622.792 374.47 624.819 375.075C627.998 370.117 632.9 358.859 636.102 352.912C645.224 335.97 653.593 317.711 662.539 300.799C669.786 312.067 680.209 334.478 686.311 347.337L686.939 346.896C686.159 345.014 685.417 343.114 684.506 341.292L685.259 341.189C686.985 342.184 687.484 343.997 688.515 346.015L689.12 345.954L689.946 345.752C691.369 343.626 692.445 341.302 693.61 339.03C701.117 324.382 708.062 309.404 716.511 295.263C713.159 289.24 709.356 283.896 705.632 278.117L706.103 277.529C704.037 274.386 702.663 273.536 700.769 270.039C702.912 271.49 704.543 273.608 706.274 275.577L707.321 275.421C704.01 270.974 699.33 266.484 695.375 262.508C701.182 258.097 717.139 246.879 724.213 249.158L724.811 248.666L722.272 247.974C721.975 245.875 721.777 246.844 723.018 244.997L723.047 243.989C735.332 239.255 764.225 240.621 776.943 244.541C791.348 240.263 808.061 240.514 822.984 240.589C856.445 240.758 889.926 240.043 923.373 240.927C937.544 228.982 934.695 257.667 923.363 244.929C846.83 245.556 826.646 295.124 797.077 353.428C801.566 359.38 798.158 365.316 791.278 365.939C788.901 368.301 778.386 390.342 776.295 394.523L744.324 458.65C737.794 471.818 727.901 489.858 722.475 503.002C728.45 520.752 717.442 512.496 712.307 521.744C709.228 527.29 705.075 536.138 702.054 542.065C692.86 560.173 683.789 578.344 674.842 596.575L644.585 657.352C637.631 671.158 630.627 684.992 623.829 698.879C623.26 700.189 621.484 704.008 621.855 705.238C623.016 709.082 624.218 709.208 622.808 713.274C621.397 717.345 616.064 716.74 614.913 717.925C613.071 719.819 610.563 725.57 608.925 728.034C604.029 736.06 597.958 743.23 590.865 749.417C583.823 755.559 576.694 758.87 567.991 762.016C572.871 775.33 556.496 774.826 560.936 763.233C543.184 766.307 528.935 767.216 511.603 760.133C499.715 764.402 488.236 766.599 475.536 765.264C472.734 764.97 462.719 762.927 460.955 763.362L461.156 763.896C462.05 766.336 462.587 767.937 461.491 770.364C457.078 773.483 451.574 768.915 454.668 762.098C430.807 754.022 422.007 738.814 410.692 716.96C401.549 715.923 397.747 710.648 403.021 702.173C396.93 691.712 390.423 677.948 384.836 666.938L353.715 605.095C349.09 595.853 344.374 586.657 339.566 577.509C337.366 573.251 333.585 566.274 331.847 561.86C330.039 558.934 326.713 551.939 324.961 548.493C320.082 538.863 315.257 529.206 310.486 519.522C300.191 517.64 300.08 513.046 303.554 504.332C300.863 501.84 287.913 474.787 285.602 470.098C268.297 434.991 249.96 400.374 233.138 365.033C224.807 365.144 222.297 359.556 226.458 352.647C212.798 327.443 208.427 312.873 191.025 288.099Z"/><defs><linearGradient id="gradient_1" gradientUnits="userSpaceOnUse" x1="471.86514" y1="391.26538" x2="140.46867" y2="454.03094"><stop offset="0" stop-color="#5352E2"/><stop offset="1" stop-color="aqua"/></linearGradient></defs><path fill="url(#gradient_1)" d="M191.025 288.099C189.121 286.297 187.067 283.848 185.407 281.865C165.333 257.884 134.499 244.344 103.375 244.506C100.105 244.523 97.186 247.855 93.7396 246.49C89.4701 244.798 90.8337 237.678 95.1371 237.111C97.2675 236.852 99.4707 239.189 100.977 240.517C107.84 240.86 114.703 240.494 121.68 240.922C129.171 240.407 140.92 240.776 148.669 240.811C155.602 240.841 166.669 240.521 173.346 240.997C177.94 240.401 186.467 240.852 191.401 240.875C210.066 240.96 228.474 239.886 246.827 243.819C248.129 244.098 258.341 241.95 260.587 241.662C274.778 239.848 289.19 240.935 302.948 244.858C318.807 239.481 351.657 240.553 368.681 240.66C384.157 240.539 399.634 240.508 415.11 240.567C422.432 240.573 432.601 240.265 439.736 240.645L440.257 240.708C444.275 241.161 449.242 241.178 453.351 241.294C449.646 241.727 447.113 241.625 443.362 241.538C442.254 243.309 442.771 243.865 442 245.507C414.184 248.337 390.271 262.257 372.706 283.78C368.825 288.557 365.249 293.574 362.002 298.803C376.063 322.833 388.923 350.689 402.255 375.673C406.841 376.126 410.877 376.892 410.55 382.627C410.478 383.889 409.508 386.786 409.042 388.113C411.655 394.482 416.009 402.869 419.014 408.831C427.852 426.406 436.782 443.935 445.805 461.416C450.722 470.9 457.334 482.687 461.646 492.099C461.435 491.981 461.217 491.875 461.013 491.745C458.906 490.407 436.23 445.009 433.209 439.034C430.944 434.557 426.487 423.141 422.875 420.185C422.797 428.441 459.609 488.865 459.264 495.035L459.552 495.868C460.041 497.251 461.629 499.602 460.995 500.895C459.284 504.377 457.973 504.723 458.807 508.804C459.78 513.561 466.424 513.239 467.166 515.822C468.399 520.121 468.848 525.586 469.033 530.013C470.016 550.095 466.085 570.113 457.582 588.332C456.072 585.45 447.048 567.641 445.825 566.052C442.87 563.789 442.325 558.852 439.617 558.529L439.028 560.217C444.808 570.924 450.284 581.794 455.448 592.812C447.755 605.584 437.191 626.033 430.714 639.24C418.798 618.097 407.964 594.24 396.287 572.805C392.993 566.759 386.01 551.457 382.809 546.932L382.33 547.61C383.771 551.624 393.807 570.115 396.404 575.105L403.801 589.376C407.921 597.502 417.106 612.862 419.213 620.645L418.832 620.899C416.936 618.939 412.142 609.029 410.596 606.081C402.892 591.397 395.303 576.654 387.828 561.853C385.937 558.168 377.43 540.372 374.851 538.885C372.512 535.269 368.807 527.319 366.723 523.178L352.26 494.821C338.109 467.237 322.679 438.586 309.098 410.896C300.975 431.093 297.781 456.705 301.276 478.019C302.683 486.6 305.014 494.713 307.374 503.065C305.745 503.488 305.029 503.541 303.554 504.332C300.863 501.84 287.913 474.787 285.602 470.098C268.297 434.991 249.96 400.374 233.138 365.033C224.807 365.144 222.297 359.556 226.458 352.647C212.798 327.443 208.427 312.873 191.025 288.099Z"/><path fill="#101022" d="M310.986 406.474C313.843 397.736 319.745 385.834 323.592 377.094C326.342 370.845 330.452 360.733 333.431 355.178L401.039 486.122C413.112 509.757 426.245 537.374 439.028 560.217C444.808 570.924 450.284 581.794 455.448 592.812C447.755 605.584 437.191 626.033 430.714 639.24C418.798 618.097 407.964 594.24 396.287 572.805C392.993 566.759 386.01 551.457 382.809 546.932C380.88 542.667 378.636 538.689 376.533 534.528C361.349 504.497 345.551 474.795 330.366 444.76C323.905 431.98 316.711 419.641 310.986 406.474Z"/><path fill="#101022" d="M360.357 302.235C369.661 319.367 378.125 337.146 387.154 354.442C391.105 362.011 394.943 369.835 398.397 377.636C391.118 389.356 404.332 389.405 405.466 391.194C409.745 397.943 414.266 407.476 417.985 414.781C427.289 433.321 436.717 451.798 446.268 470.212C449.61 476.665 455.578 489.286 459.264 495.035L459.552 495.868C460.041 497.251 461.629 499.602 460.995 500.895C459.284 504.377 457.973 504.723 458.807 508.804C459.78 513.561 466.424 513.239 467.166 515.822C468.399 520.121 468.848 525.586 469.033 530.013C470.016 550.095 466.085 570.113 457.582 588.332C456.072 585.45 447.048 567.641 445.825 566.052C443.382 560.437 438.29 551.179 435.401 545.578L414.248 504.519L335.199 350.815C342.679 334.423 350.597 317.421 360.357 302.235Z"/><path fill="#101022" d="M200.438 294.274C204.559 283.835 210.893 272.77 218.822 264.752C230.102 273.454 239.92 283.903 247.903 295.703C243.737 303.813 238.284 315.132 236.261 323.916C233.671 329.153 231.382 344.401 230.302 350.877C226.472 342.93 222.577 335.014 218.619 327.13C216.197 322.262 212.71 314.862 209.804 310.468C208.12 306.345 202.989 298.334 200.438 294.274Z"/><path fill="#101022" d="M382.17 244.843C388.064 244.671 419.911 244.086 424.361 244.985L424.578 245.407L424.189 245.641C423.403 245.721 422.619 245.83 421.84 245.967C417.453 246.713 411.05 249.588 407.07 251.552C385.995 261.95 373.321 276.112 360.26 294.917C352.874 282.436 345.44 272.637 334.655 262.799C354.325 250.885 359.655 248.112 382.17 244.843Z"/><path fill="#101022" d="M135.103 245.173C148.776 244.619 158.072 244.529 171.685 245.058C172.627 245.302 182.515 247.315 183.33 247.385C193.638 250.756 208.052 256.119 216.285 263.308C210.981 267.477 199.927 283.459 198.741 290.108L197.877 290.708C196.611 290.207 195.136 287.738 193.9 286.328C181.111 266.983 157.665 250.686 135.103 245.173Z"/><path fill="#101022" d="M246.579 248.372C257.076 251.497 264.509 255.961 273.622 261.966C267.536 268.321 253.356 283.783 250.551 291.467C250.085 291.827 250.414 291.614 249.465 291.921C247.133 289.577 243.709 284.596 241.423 281.793C235.52 274.616 228.75 268.199 221.268 262.689C229.029 255.926 237.026 251.853 246.579 248.372Z"/><path fill="#03E4F5" d="M183.33 247.385C186.341 247.025 187.466 248.18 191.431 248.21L191.68 247.897C190.22 247.365 186.253 246.269 185.725 245.277C186.159 243.642 185.731 244.291 187.027 243.244L188.117 243.374L188.353 244.294C198.863 245.345 213.829 244.005 224.857 244.592C227.636 244.74 237.577 246.03 239.324 245.889C241.002 245.383 240.877 245.369 242.579 245.762L242.55 246.535C240.655 247.938 237.189 249.733 236.203 251.384C235.57 251.305 245.44 247.847 246.586 247.518L247.39 247.8L246.579 248.372C237.026 251.853 229.029 255.926 221.268 262.689C228.75 268.199 235.52 274.616 241.423 281.793C243.709 284.596 247.133 289.577 249.465 291.921C250.414 291.614 250.085 291.827 250.551 291.467L251.11 291.743C251.431 291.229 248.846 295.151 249.728 293.475C245.843 300.856 239.02 316.736 236.862 324.115L236.261 323.916C238.284 315.132 243.737 303.813 247.903 295.703C239.92 283.903 230.102 273.454 218.822 264.752C210.893 272.77 204.559 283.835 200.438 294.274C202.989 298.334 208.12 306.345 209.804 310.468L208.704 310.537C206.796 306.461 201.597 298.307 199.47 294.473C198.953 293.543 203.599 286.236 203.075 283.582C201.409 285.107 200.622 287.962 198.741 290.108C199.927 283.459 210.981 267.477 216.285 263.308C208.052 256.119 193.638 250.756 183.33 247.385Z"/><path fill="#101022" d="M188.353 244.294C198.863 245.345 213.829 244.005 224.857 244.592C227.636 244.74 237.577 246.03 239.324 245.889L240.457 246.831C239.11 248.164 234.822 249.391 232.576 250.795C227.844 253.753 223.384 257.038 218.942 260.4C213.244 256.08 204.644 251.843 198.135 248.955C195.926 247.975 189.12 245.905 187.717 244.823L188.353 244.294Z"/><path fill="#00E8EF" d="M191.025 288.099C189.121 286.297 187.067 283.848 185.407 281.865C165.333 257.884 134.499 244.344 103.375 244.506C100.105 244.523 97.186 247.855 93.7396 246.49C89.4701 244.798 90.8337 237.678 95.1371 237.111C97.2675 236.852 99.4707 239.189 100.977 240.517C107.84 240.86 114.703 240.494 121.68 240.922C117.439 241.501 104.927 240.814 102.983 241.517L100.838 243.096C108.308 243.71 113.783 243.679 121.475 244.965C125.48 245.634 136.006 248.66 138.854 248.696L139.321 247.536C137.969 246.939 136.622 246.33 135.281 245.71L135.119 245.008C138.595 242.367 163.262 244.176 168.969 244.003C169.517 243.987 171.092 244.809 171.685 245.058C158.072 244.529 148.776 244.619 135.103 245.173C157.665 250.686 181.111 266.983 193.9 286.328C190.837 285.573 192.245 284.002 188.349 282.578C188.237 284.403 191.565 285.663 191.025 288.099Z"/><path fill="#506ADD" d="M368.681 240.66C384.157 240.539 399.634 240.508 415.11 240.567C422.432 240.573 432.601 240.265 439.736 240.645L440.257 240.708C444.275 241.161 449.242 241.178 453.351 241.294C449.646 241.727 447.113 241.625 443.362 241.538L442.385 241.605C436.349 241.986 422.491 241.259 415.761 241.565C415.549 241.783 415.338 242.001 415.126 242.219L415.085 243.66C416.939 244.621 422.251 242.527 426.59 244.382L426.844 245.284C425.677 246.503 426.369 246.122 424.671 246.426L424.208 246.13L424.189 245.641L424.578 245.407L424.361 244.985C419.911 244.086 388.064 244.671 382.17 244.843L382.202 244.365C384.241 242.336 405.069 246.144 407.227 241.848C405.295 240.73 370.902 242.197 368.681 240.66Z"/><path fill="#03E4F5" d="M121.68 240.922C129.171 240.407 140.92 240.776 148.669 240.811C155.602 240.841 166.669 240.521 173.346 240.997C172.005 241.536 171.446 241.678 169.987 241.707C151.511 242.069 132.938 241.337 114.475 241.968C109.467 242.139 107.805 241.829 102.983 241.517C104.927 240.814 117.439 241.501 121.68 240.922Z"/><path fill="#101022" d="M278.923 353.267C279.979 353.833 304.875 402.298 307.082 407.36C295.492 435.965 294.811 456.366 298.834 485.978L298.573 486.278L297.476 484.266C287.372 463.242 274.298 438.799 264.51 417.819C258.438 404.806 272.93 368.126 278.923 353.267Z"/><path fill="#101022" d="M304.348 299.79C307.948 302.456 326.299 343.292 331.395 350.429C324.845 367.4 315.772 385.487 308.881 402.735C299.697 384.723 290.403 366.767 281.001 348.869C286.199 335.407 297.217 312.887 304.348 299.79Z"/><path fill="#101022" d="M250.081 298.883C257.614 307.739 271.411 337.182 277.23 349.259C268.537 368.275 261.733 387.245 259.828 408.231C259.518 408.185 259.209 408.138 258.9 408.092C251.934 393.047 244.678 378.138 237.138 363.373C238.455 357.983 237.604 355.143 233.683 351.636C235.99 333.221 241.541 315.36 250.081 298.883Z"/><path fill="#101022" d="M331.512 264.884C339.911 270.204 352.865 289.172 358.236 298.418C350.127 314.571 341.508 328.532 333.386 345.816L332.734 345.874C331.554 344.755 309.272 300.519 306.785 295.745C313.96 283.111 320.803 274.633 331.512 264.884Z"/><path fill="#101022" d="M276.585 264.334C283.964 268.204 297.864 288.071 302.819 295.862C300.004 299.883 296.765 307.038 294.551 311.51C289.162 322.399 284.332 333.665 278.854 344.507C269.5 328.075 263.159 311.085 252.055 295.469C259.433 282.734 266.114 274.331 276.585 264.334Z"/><path fill="#101022" d="M303.355 248.493C313.364 252.877 320.054 256.792 328.942 262.879C318.7 271.139 311.895 280.808 304.928 291.697C303.355 290.49 296.659 280.599 294.755 278.133C290.241 272.243 285.078 266.881 279.364 262.148C287.02 255.949 294.503 252.405 303.355 248.493Z"/><path fill="#101022" d="M326.355 244.714C329.428 244.314 337.059 244.449 340.406 244.452L365.159 244.557C355.337 247.058 350.03 249.699 341.269 254.523C337.572 256.535 335.293 258.222 331.982 260.779C324.006 254.808 317.947 251.203 309.064 246.94C314.756 245.573 320.541 245.157 326.355 244.714Z"/><path fill="#101022" d="M273.367 244.724C281.637 244.653 289.537 245.303 297.555 247.361C289.729 250.583 283.56 254.445 276.731 259.293C275.583 259.297 271.581 256.508 270.168 255.678C264.254 252.206 259.44 249.184 252.87 246.941C260.614 245.354 265.588 245.051 273.367 244.724Z"/><path fill="#101022" d="M662.539 300.799C669.786 312.067 680.209 334.478 686.311 347.337C686.579 348.185 686.896 349.188 687.262 350.344C677.537 371.458 658.408 408.533 648.553 427.501L583.588 554.171C577.575 565.849 571.73 578.51 565.563 589.98C554.69 562.81 552.073 544.381 556.257 515.138C559.869 513.832 566.161 510.755 563.584 506.216C559.826 499.597 564.656 495.58 567.14 489.055L566.613 489.013C566.285 486.22 577.264 471.345 575.141 468.82C573.759 469.514 566.389 485.286 564.685 488.119L563.766 488.334C565.733 483.89 568.3 478.878 570.596 474.577C585.774 446.144 599.001 416.26 614.561 388.085C612.333 386.728 609.942 382.163 612.038 379.684C615.311 375.814 616.474 375.067 621.138 374.327L622.128 372.945C622.892 374.279 622.792 374.47 624.819 375.075C627.998 370.117 632.9 358.859 636.102 352.912C645.224 335.97 653.593 317.711 662.539 300.799Z"/><path fill="#0AC5F3" d="M614.561 388.085C615.564 388.77 616.395 389.278 617.303 390.092L583.267 457.456C579.392 465.136 571.168 482.716 567.14 489.055L566.613 489.013C566.285 486.22 577.264 471.345 575.141 468.82C573.759 469.514 566.389 485.286 564.685 488.119L563.766 488.334C565.733 483.89 568.3 478.878 570.596 474.577C585.774 446.144 599.001 416.26 614.561 388.085Z"/><path fill="#0EA9F0" d="M622.128 372.945C622.892 374.279 622.792 374.47 624.819 375.075C624.396 378.107 629.648 385.194 623.79 388.363C621.801 389.459 619.574 390.053 617.303 390.092C616.395 389.278 615.564 388.77 614.561 388.085C612.333 386.728 609.942 382.163 612.038 379.684C615.311 375.814 616.474 375.067 621.138 374.327L622.128 372.945Z"/><path fill="#101022" d="M309.098 410.896C322.679 438.586 338.109 467.237 352.26 494.821L366.723 523.178C368.807 527.319 372.512 535.269 374.851 538.885L428.336 642.846C417.101 665.449 412.209 674.746 406.649 699.977C398.703 685.894 390.458 668.734 383.161 654.104L353.211 594.814L341.33 571.436C340.225 569.236 336.824 562.012 335.682 560.409L334.827 560.123C333.638 557.968 332.506 555.783 331.432 553.569L330.308 553.237L329.39 553.853C328.869 556.92 333.659 560.211 331.847 561.86C330.039 558.934 326.713 551.939 324.961 548.493C320.082 538.863 315.257 529.206 310.486 519.522C300.191 517.64 300.08 513.046 303.554 504.332C305.029 503.541 305.745 503.488 307.374 503.065C305.014 494.713 302.683 486.6 301.276 478.019C297.781 456.705 300.975 431.093 309.098 410.896Z"/><path fill="#0EA9F0" d="M307.374 503.065C322.749 503.308 314.681 517.258 314.744 517.426C320.147 531.853 329.93 546.042 335.682 560.409L334.827 560.123C333.638 557.968 332.506 555.783 331.432 553.569L330.308 553.237L329.39 553.853C328.869 556.92 333.659 560.211 331.847 561.86C330.039 558.934 326.713 551.939 324.961 548.493C320.082 538.863 315.257 529.206 310.486 519.522C300.191 517.64 300.08 513.046 303.554 504.332C305.029 503.541 305.745 503.488 307.374 503.065Z"/><path fill="#101022" d="M695.375 262.508C701.182 258.097 717.139 246.879 724.213 249.158C726.297 250.476 729.915 251.959 732.283 253.128C737.022 255.468 740.787 257.76 745.208 260.646C734.37 271.097 727.074 278.328 718.751 291.38C716.753 288.382 709.535 277.084 707.321 275.421C704.01 270.974 699.33 266.484 695.375 262.508Z"/><path fill="#101022" d="M689.367 354.795C691.215 356.066 710.371 398.844 713.046 404.644C706.316 418.215 699.086 431.379 692.254 444.837L627.153 572.62L603.666 618.403C601.506 622.583 594.268 636.956 591.968 640.09C583.776 624.525 575.137 609.151 567.271 593.418C573.674 582.229 580.268 568.543 586.119 557.008L612.341 505.96C637.895 456.355 665.003 404.818 689.367 354.795Z"/><path fill="#101022" d="M714.454 409.301L715.164 409.778C716.787 412.912 718.158 418.327 719.123 421.836C725.715 445.779 725.863 471.04 719.552 495.059C717.587 502.65 717.512 500.73 711.32 504.004C707.093 506.238 708.91 511.587 711.186 514.662C699.706 539.598 686.334 564.332 674.277 588.989C660.295 617.658 646.058 646.201 631.568 674.616C629.551 678.547 618.99 700.853 616.873 701.982L615.929 701.643C614.592 699.965 614.547 698.022 614.182 695.827C610.114 678.891 601.77 660.292 594.391 644.558C597.253 637.345 603.97 625.556 607.768 618.242L631.957 571.151L714.454 409.301Z"/><path fill="#101022" d="M430.388 647.312C432.054 648.692 454.521 692.974 457.56 698.737C450.338 717.215 447.474 737.492 451.937 757.026C448.375 755.929 445.183 754.096 442.038 752.155C428.405 742.925 421.31 729.292 413.661 715.37C415.493 712.857 416.874 710.506 416.43 707.278C415.971 703.947 412.634 703.092 410.721 700.873C411.05 687.523 423.227 659.05 430.388 647.312Z"/><path fill="#101022" d="M743.704 351.366C745.856 354.379 747.498 359.651 748.933 363.18C756.545 381.907 757.965 397.442 760.672 416.858C752.709 432.272 745.569 448.172 737.494 463.538C733.998 470.191 730.642 476.902 727.351 483.659C726.383 485.509 725.248 487.457 724.225 489.294C731.341 464.021 727.329 428.84 716.926 404.917C724.571 387.437 735.825 369.101 743.704 351.366Z"/><path fill="#101022" d="M592.112 648.309C593.357 649.911 595.632 655.503 596.653 657.7C603.816 673.122 608.023 685.724 611.929 702.234C606.571 706.011 605.752 711.549 610.68 716.15C604.087 730.87 595.306 742.572 581.746 751.381C577.801 753.687 575.198 754.939 571.008 756.819C575.542 735.908 573.808 718.67 565.987 698.641C568.565 692.427 575.591 680.263 578.93 673.79C582.603 666.672 588.095 654.736 592.112 648.309Z"/><path fill="#101022" d="M551.201 520.358C551.57 521.991 550.98 538.434 551.057 541.477C551.58 562.148 555.885 575.611 563.025 594.396C556.25 608.954 546.308 626.92 538.777 641.464C537.425 638.905 536.083 636.003 534.809 633.376C528.49 620.406 520.472 605.471 513.537 592.716C521.674 577.571 529.637 562.334 537.427 547.008C541.334 539.338 546.9 527.375 551.201 520.358Z"/><path fill="#101022" d="M472.101 521.821C473.865 523.302 506.214 586.688 509.4 592.99C502.271 606.404 495.565 619.93 488.347 633.291L484.251 641.284C476.151 625.198 467.956 608.19 459.556 592.363C471.582 568.974 473.137 547.196 472.101 521.821Z"/><path fill="#101022" d="M774.449 297.883C782.672 307.336 788.146 338.566 790.397 351.403C786.115 354.532 784.775 356.637 787.213 361.753C788.08 363.572 783.793 370.965 782.801 372.918C776.361 385.599 770.162 398.438 763.728 411.118C763.117 409.992 761.532 396.047 761.104 393.421C758.455 377.175 752.516 362.553 746.051 347.562C753.058 332.334 764.643 311.237 774.449 297.883Z"/><path fill="#101022" d="M718.579 298.788C720.253 301.18 724.205 309.201 725.614 312.111C731.249 323.751 736.673 335.658 742.088 347.412C733.356 365.329 723.5 382.634 715.129 400.716C712.523 395.812 709.402 388.414 707.047 383.253C702.026 372.125 696.864 361.061 691.562 350.065C700.813 333.332 708.952 315.257 718.579 298.788Z"/><path fill="#101022" d="M511.547 596.419C514.156 600.281 516.287 605.343 518.543 609.501C524.586 620.64 530.394 634.193 537.043 644.754C528.602 659.584 520.158 677.828 511.924 693.265C511.601 693.303 511.288 693.128 510.975 693.039C503.609 679.281 493.278 659.624 486.745 645.25C489.797 638.266 493.859 631.397 497.323 624.569C502.08 615.193 506.79 605.795 511.547 596.419Z"/><path fill="#101022" d="M457.332 596.796C460.205 599.452 478.579 638.37 482.523 645.363C477.152 655.166 472.059 665.118 467.251 675.209C464.431 681.186 461.889 687.536 458.926 693.382C450.655 678.395 440.034 658.045 432.758 642.784C439.131 628.906 449.915 610.303 457.332 596.796Z"/><path fill="#101022" d="M564.655 598.196C567.388 599.856 587.26 638.798 590.086 644.632C585.807 651.531 581.687 660.136 577.983 667.43C573.684 675.789 569.341 684.125 564.952 692.438L564.525 693.119L563.955 693.065C558.29 679.866 547.931 657.472 540.937 645.275C548.215 629.513 557.413 614.48 564.655 598.196Z"/><path fill="#101022" d="M538.738 649.313C541.594 651.938 559.806 692.322 562.201 697.737C553.01 715.706 549.626 722.46 536.806 738.134C528.697 730.266 518.327 708.388 513.408 697.795C521.545 682.302 530.336 664.257 538.738 649.313Z"/><path fill="#101022" d="M484.214 649.736C486.66 651.989 506.381 692.321 509.129 698.168C504.358 709.672 493.882 727.584 486.316 737.14C474.953 726.729 468.083 711.027 461.267 697.292C467.702 683.605 476.423 662.18 484.214 649.736Z"/><path fill="#101022" d="M748.127 263.305C753.158 265.045 769.41 287.914 772.478 293.816C759.139 312.974 755.191 321.67 744.578 342.634C744.324 342.594 744.07 342.555 743.815 342.515C735.94 326.561 729.057 311.208 720.78 294.935C730.042 280.571 735.653 274.662 748.127 263.305Z"/><path fill="#101022" d="M804.717 265.365C810.824 267.492 820.722 288.953 823.071 295.19C812.79 313.119 803.79 331.424 794.461 349.849L793.829 350.716L793.283 350.704C792.43 330.765 785.313 312.057 776.675 294.377C783.11 285.238 795.76 271.507 804.717 265.365Z"/><path fill="#101022" d="M870.829 244.742C876.521 244.638 882.214 244.722 887.899 244.995C857.437 255.866 845.555 266.075 825.357 291.152C821.003 279.154 816.337 272.728 808.109 263.232C831.17 248.597 843.84 245.456 870.829 244.742Z"/><path fill="#101022" d="M510.761 702.238C512.41 703.498 517.798 714.8 519.205 717.411C523.711 725.77 527.974 733.394 533.853 740.939C525.86 747.971 521.144 751.256 511.646 756.045C506.948 755.153 492.737 743.822 488.462 740.328C497.84 728.767 504.287 715.543 510.761 702.238Z"/><path fill="#101022" d="M776.293 248.479C782.564 248.344 797.287 259.137 802.478 263.126C790.916 271.846 785.468 277.793 776.396 288.646C775.773 289.484 775.792 289.367 774.959 290.044C773.696 289.223 769.214 282.098 767.885 280.241C762.928 273.345 757.338 266.928 751.189 261.071C760.488 255.359 766.18 252.249 776.293 248.479Z"/><path fill="#101022" d="M563.241 703.226C565.381 704.738 566.622 710.813 567.221 713.392C570.837 728.964 570.028 743.451 567.099 759C561.059 757.785 557.092 756.087 551.912 752.907C546.713 748.965 543.65 745.686 539.284 740.939C552.377 726.216 554.33 719.576 563.241 703.226Z"/><path fill="#101022" d="M459.235 702.816C460.865 704.284 468.796 720.217 471.159 723.846C475.523 730.547 478.525 734.44 483.65 740.624C479.168 745.869 476.74 748.137 471.247 752.328C468.593 754.251 457.339 761.974 455.814 756.725C451.148 740.668 454.531 717.911 459.235 702.816Z"/><path fill="#101022" d="M798.823 244.711C802.098 244.315 810.046 244.478 813.589 244.479C822.728 244.463 831.868 244.498 841.007 244.581C831.286 247.208 826.498 248.421 817.757 253.064C813.161 255.592 809.636 257.894 805.294 260.767C798.507 254.925 790.513 250.47 782.34 246.902C787.763 245.535 793.27 245.164 798.823 244.711Z"/><path fill="#101022" d="M485.977 743.243C486.689 743.567 493.134 748.766 494.041 749.508C498.724 753.342 501.459 755.181 506.799 757.966C499.455 760.164 495.127 761.048 487.51 761.984C478.232 762.181 473.901 761.641 464.978 760.049C473.077 755.978 480.23 750.253 485.977 743.243Z"/><path fill="#101022" d="M536.431 743.394C544.401 752.17 547.39 754.957 557.779 760.115C549.931 761.713 546.346 762.117 538.349 762.067C530.85 761.919 523.318 760.204 516.185 758.01C523.428 753.863 530.214 748.963 536.431 743.394Z"/><path fill="#101022" d="M743.256 244.709C750.954 243.851 763.255 245.492 770.788 246.856C763.834 249.325 758.567 252.253 752.291 256.043L748.282 258.66C742.065 253.537 734.033 249.873 726.8 246.33C732.101 245.601 737.894 245.191 743.256 244.709Z"/><path fill="#0AC5F3" d="M540.382 244.597C537.16 247.841 531.66 247.711 531.344 243.656C530.737 235.837 536.133 235.545 540.531 240.727C544.466 240.637 548.53 240.601 552.46 240.659C599.494 241.346 646.757 240.308 693.766 240.844C699.078 240.942 704.38 241.311 709.654 241.95C712.705 242.346 721.048 244.256 723.047 243.989L723.018 244.997C721.777 246.844 721.975 245.875 722.272 247.974L724.811 248.666L724.213 249.158C717.139 246.879 701.182 258.097 695.375 262.508C699.33 266.484 704.01 270.974 707.321 275.421L706.274 275.577C704.543 273.608 702.912 271.49 700.769 270.039C702.663 273.536 704.037 274.386 706.103 277.529L705.632 278.117C709.356 283.896 713.159 289.24 716.511 295.263C708.062 309.404 701.117 324.382 693.61 339.03C692.445 341.302 691.369 343.626 689.946 345.752L689.12 345.954L688.515 346.015C687.484 343.997 686.985 342.184 685.259 341.189L684.506 341.292C685.417 343.114 686.159 345.014 686.939 346.896L686.311 347.337C680.209 334.478 669.786 312.067 662.539 300.799C653.593 317.711 645.224 335.97 636.102 352.912C632.9 358.859 627.998 370.117 624.819 375.075C622.792 374.47 622.892 374.279 622.128 372.945C630.161 356.873 638.279 340.844 646.482 324.858C650.868 316.185 655.616 306.128 660.414 297.787C651.959 283.741 645.747 274.932 632.682 264.775C604.339 242.741 573.985 244.631 540.382 244.597Z"/><path fill="#101022" d="M692.792 264.654C697.726 269.127 701.208 273.178 705.632 278.117C709.356 283.896 713.159 289.24 716.511 295.263C708.062 309.404 701.117 324.382 693.61 339.03C692.445 341.302 691.369 343.626 689.946 345.752L689.12 345.954C688.009 342.335 683.833 334.315 682.018 330.722C676.389 319.524 670.513 308.453 664.393 297.515C672.043 285.369 681.598 273.715 692.792 264.654Z"/><path fill="#101022" d="M599.05 244.704C635.74 244.829 657.935 239.937 690.012 262.279C684.063 267.774 679.851 271.757 674.636 277.848C669.799 283.461 666.574 288.13 662.586 294.232C650.191 274.72 636.854 260.142 615.269 250.394C609.96 247.997 604.204 247.005 599.05 244.704Z"/><path fill="#101022" d="M663.347 244.619C678.94 244.187 701.025 244.11 716.194 246.308C712.493 247.888 709.613 249.204 706.046 251.049C701.156 253.821 697.011 256.687 692.371 259.838C681.143 252.261 675.826 249.533 663.347 244.619Z"/><path fill="#5D5BD6" d="M486.738 240.629C489.196 238.79 492.888 236.683 495.077 240.378C495.761 241.544 495.955 242.934 495.617 244.243C494.316 249.305 489.454 247.463 486.604 244.945C472.018 244.814 456.463 244.412 442 245.507C442.771 243.865 442.254 243.309 443.362 241.538C447.113 241.625 449.646 241.727 453.351 241.294C449.242 241.178 444.275 241.161 440.257 240.708L439.736 240.645C455.403 240.55 471.071 240.545 486.738 240.629Z"/></svg>