<?xml version="1.0" encoding="utf-8" ?><svg xmlns="http://www.w3.org/2000/svg" xmlns:xlink="http://www.w3.org/1999/xlink" width="1024" height="1024" viewBox="0 0 1024 1024"><defs><linearGradient id="gradient_0" gradientUnits="userSpaceOnUse" x1="765.08032" y1="580.92383" x2="476.3721" y2="279.28717"><stop offset="0" stop-color="#704CDA"/><stop offset="1" stop-color="#1E9CF9"/></linearGradient></defs><path fill="url(#gradient_0)" d="M190.465 288.022C187.383 285.412 181.495 277.744 177.533 274.021C160.664 258.254 139.217 248.263 116.294 245.493C112.032 244.991 106.895 244.627 102.555 245.033C99.9423 245.278 96.8924 247.871 94.1098 246.922C92.5161 246.384 91.2357 244.485 90.7048 242.941C89.6492 239.872 91.8204 237.985 94.6043 237.563C97.6815 237.097 99.3372 238.749 101.616 240.388C120.965 240.492 140.433 240.003 159.776 240.483C182.349 239.582 206.779 240.824 229.456 240.982C235.573 241.024 241.94 243.067 248.08 243.325C250.688 243.499 258.215 241.536 261.352 241.145C275.596 239.489 290.026 240.647 303.822 244.555C316.003 239.695 347.934 240.387 361.464 240.346C374.984 240.235 388.504 240.209 402.025 240.269L480.05 240.534C481.802 240.532 485.193 240.638 486.762 240.228C489.221 239.585 489.969 238.22 492.67 238.416C500.028 241.598 496.084 251.038 485.68 244.977C443.08 245.474 414.328 241.866 379.923 276.175C372.843 283.235 367.82 290.588 362.348 298.952C372.42 315.721 381.273 334.848 390.471 352.244C394.538 359.935 398.047 367.731 402.521 375.311C410.753 376.95 412.506 379.508 409.111 387.841C414.337 399.147 420.841 410.982 425.706 421.93C435.558 439.315 444.52 459.47 454.234 477.127C457.638 483.313 461.218 491.696 464.812 497.413C475.123 501.816 476.596 502.087 472.061 512.702L498.054 562.549C501.61 569.334 507.681 581.795 511.556 587.958C524.185 563.895 538.619 537.579 550.58 513.431C545.077 505.198 548.207 499.698 557.73 498.543L563.419 488.184C565.528 488.171 565.703 488.081 567.378 489.201C565.085 493.631 563.519 496.835 561.621 501.454C565.898 509.907 564.616 511.094 556.427 515.393C552.304 540.725 554.676 566.126 565.581 589.578C569.263 583.446 574.986 570.606 578.55 563.647L611.624 499.003L646.976 430.036C660.53 403.918 674.977 376.47 687.342 349.785L684.566 344.09C684.828 342.85 684.735 342.774 685.498 341.799L687.874 342.033C688.58 343.017 689.137 344.686 689.618 345.874C698.99 329.236 706.595 312.058 716.343 295.262C712.946 289.668 709.372 284.183 705.624 278.818C706.102 276.849 706.21 276.764 707.395 275.068C711.325 279.749 715.353 286.211 718.731 291.388C727.738 277.848 733.304 271.669 745.054 260.692C737.575 256.035 730.522 251.97 722.245 248.873C721.813 246.655 722.87 246.328 722.452 244.452C725.028 241.704 737.477 241.109 741.102 240.994C752.885 240.62 765.841 241.108 777.22 244.338C792.209 238.938 830.285 240.453 847.248 240.43L923.7 240.6C937.447 231.38 934.861 253.467 925.05 246.524C924.374 246.037 923.711 245.533 923.06 245.012C892.403 245.905 865.298 253.311 843.715 276.39C825.659 295.697 808.221 329.044 797.419 353.316C802.306 360.767 798.362 364.146 791.089 366.299C786.226 374.324 781.744 383.841 777.552 392.312L759.63 428.384L738.741 469.944C733.296 480.712 727.504 491.776 722.784 502.866C725.913 513.466 725.151 514.802 714.356 518.416C708.955 527.056 700.525 545.64 695.709 555.313L660.745 625.386L635.279 676.264C631.818 683.168 623.976 698.028 621.831 704.678C625.366 712.631 623.861 716.313 614.853 717.286C604.058 737.738 592.3 754.207 569.068 761.252L568.272 761.489C571.215 774.922 558.899 775.585 559.938 763.594C543.327 766.087 527.167 768.08 511.279 760.037C497.893 765.413 482.732 767.388 468.596 764.251C458.434 761.996 463.861 764.288 461.731 769.899C460.951 770.701 460.291 771.489 459.068 771.451C451.497 771.21 454.387 765.594 454.012 762.487C451.064 760.299 445.608 759.154 441.941 756.893C426.709 747.501 417.918 732.553 410.507 716.765C401.35 716.721 397.016 709.744 403.097 702.425C398.112 694.271 393.451 684.559 389.104 675.955L368.954 635.877L350.824 599.97C348.51 595.394 343.721 586.601 341.847 582.09C338.979 577.877 330.947 560.815 328.326 555.514C329.62 553.506 329.904 553.391 332.003 552.484C334.505 557.417 341.498 570.421 343.315 575.324C346.251 579.523 355.18 598.402 358.047 604.103L385.956 659.249C391.492 670.404 399.928 688.628 406.493 698.801C412.911 674.415 416.59 665.612 428.081 642.866C425.459 637.865 417.095 622.256 415.22 617.325C413.883 615.531 407.642 602.97 406.196 600.161L385.911 560.79L337.735 467.328L320.502 433.795C317.219 427.429 311.704 417.336 309.28 410.882C297.042 443.563 297.766 469.182 307.427 502.048C305.762 503.602 304.728 503.168 303.055 504.189C299.528 499.796 293.964 488.022 291.357 482.68L277.558 454.502C262.815 424.83 246.823 395.211 233.017 365.131C223.969 365.287 222.604 359.917 225.969 352.541C217.059 336.379 210.146 319.052 200.522 303.244C197.319 297.983 193.992 293.073 190.465 288.022ZM430.71 638.627C438.668 622.776 446.237 608.006 455.408 592.834C448.304 578.561 441.002 564.387 433.501 550.318C427.31 538.73 417.782 521.317 412.672 509.587C412.679 508.606 412.606 507.192 412.182 506.33C407.702 497.222 402.81 487.812 398.188 478.815L368.91 421.971C366.694 417.722 355.248 397.726 356.42 394.516C357.241 396.63 358.845 398.458 359.907 400.485C363.121 406.619 366.137 412.888 369.323 419.046C373.518 427.156 411.599 502.889 413.707 504.201C413.909 504.327 414.122 504.436 414.329 504.553C415.752 506.142 420.28 515.731 421.461 517.994C433.528 541.119 445.071 564.677 457.628 587.539C467.209 567.383 472.391 536.867 466.785 514.962C457.763 510.871 456.317 508.788 460.952 500.087C459.169 495.146 453.196 484.541 450.717 479.4C441.868 461.052 430.471 441.667 422.24 423.171C424.501 423.356 430.253 439.414 433.534 441.901C432.956 436.037 427.061 428.092 424.893 422.218L425.706 421.93C420.841 410.982 414.337 399.147 409.111 387.841C412.506 379.508 410.753 376.95 402.521 375.311C398.047 367.731 394.538 359.935 390.471 352.244C381.273 334.848 372.42 315.721 362.348 298.952C367.82 290.588 372.843 283.235 379.923 276.175C414.328 241.866 443.08 245.474 485.68 244.977C496.084 251.038 500.028 241.598 492.67 238.416C489.969 238.22 489.221 239.585 486.762 240.228C485.193 240.638 481.802 240.532 480.05 240.534L402.025 240.269C388.504 240.209 374.984 240.235 361.464 240.346C347.934 240.387 316.003 239.695 303.822 244.555C290.026 240.647 275.596 239.489 261.352 241.145C258.215 241.536 250.688 243.499 248.08 243.325C241.94 243.067 235.573 241.024 229.456 240.982C206.779 240.824 182.349 239.582 159.776 240.483C140.433 240.003 120.965 240.492 101.616 240.388C99.3372 238.749 97.6815 237.097 94.6043 237.563C91.8204 237.985 89.6492 239.872 90.7048 242.941C91.2357 244.485 92.5161 246.384 94.1098 246.922C96.8924 247.871 99.9423 245.278 102.555 245.033C106.895 244.627 112.032 244.991 116.294 245.493C139.217 248.263 160.664 258.254 177.533 274.021C181.495 277.744 187.383 285.412 190.465 288.022C193.992 293.073 197.319 297.983 200.522 303.244C210.146 319.052 217.059 336.379 225.969 352.541C222.604 359.917 223.969 365.287 233.017 365.131C246.823 395.211 262.815 424.83 277.558 454.502L291.357 482.68C293.964 488.022 299.528 499.796 303.055 504.189C304.728 503.168 305.762 503.602 307.427 502.048C297.766 469.182 297.042 443.563 309.28 410.882C311.704 417.336 317.219 427.429 320.502 433.795L337.735 467.328L385.911 560.79L406.196 600.161C407.642 602.97 413.883 615.531 415.22 617.325L415.92 616.886C415.717 615.94 415.533 615.355 414.955 614.558C412.793 611.58 382.331 551.622 382.2 550.891C382.093 550.287 382.219 549.664 382.229 549.05L382.835 548.745C385.587 551.416 385.212 556.656 389.206 558.88C391.606 562.289 398.242 576.075 400.585 580.497C410.686 599.559 420.035 619.881 430.71 638.627ZM457.302 597.282C449.983 610.604 439.269 628.981 433.011 642.684C440.378 658.857 450.162 677.021 458.734 692.707C460.674 690.552 466.833 675.778 468.611 672.209C473.072 663.255 477.334 653.994 482.442 645.272C478.378 638.101 461.036 600.968 457.302 597.282ZM541.15 644.963C546.721 655.865 552.103 666.862 557.296 677.95C558.408 680.33 562.999 691.953 564.614 692.569L565.14 691.822C572.467 676.996 581.834 659.039 589.843 644.59C587.195 639.492 567.04 599.783 564.889 598.301C557.175 614.071 549.091 629.334 541.15 644.963ZM717.097 404.66C727.731 429.513 730.548 461.511 724.948 487.797L727.453 483.094C738.326 460.886 749.373 438.763 760.592 416.727L760.473 416.14C759.321 410.229 758.794 403.746 757.825 397.711C755.912 385.259 752.665 373.048 748.14 361.291C747.229 358.887 745.505 353.929 743.75 352.235C735.363 369.823 725.141 387.154 717.097 404.66ZM513.473 697.745C520.902 712.726 526.171 724.897 536.783 738.12C547.349 725.952 554.783 711.914 561.984 697.605C558.756 690.446 542.23 653.08 538.756 649.34C530.736 664.779 521.927 682.742 513.473 697.745ZM616.353 702.28C620.21 697.501 624.836 687.553 627.786 681.715L642.479 652.535L695.477 546.438C700.617 536.129 705.544 525.096 710.773 514.941C705.828 505.77 709.665 504.614 717.506 500.458C725.607 476.4 725.589 446.973 718.967 422.595C718.268 420.02 716.192 410.958 714.626 409.309L631.626 572.08C619.888 595.099 605.162 621.598 594.348 644.532C601.887 659.84 609.116 676.671 613.737 693.118C614.522 696.231 615.193 699.29 616.353 702.28ZM461.469 697.258C468.544 711.078 475.12 726.193 486.387 737.033C494.83 724.704 503.029 711.593 509.167 697.918L484.554 649.342C475.52 665.493 468.961 680.365 461.469 697.258ZM712.844 404.775C707.508 393.403 702.282 381.979 697.167 370.505C696.018 367.975 690.781 356.317 689.577 354.787C682.694 369.427 674.967 384.048 667.667 398.524C650.324 432.773 632.797 466.929 615.086 500.99L584.64 560.239C579.247 570.803 573.328 583.412 567.518 593.413C575.542 608.724 583.828 624.17 591.662 639.559L592.335 639.402C620.216 586.419 646.894 532.52 674.457 479.362C686.952 455.264 699.717 428.347 712.844 404.775ZM744.44 342.091C753.907 324.463 760.928 310.116 772.344 293.6C769.444 289.31 752.67 264.301 748.507 263.343C736.954 273.644 729.355 281.779 721.091 295.126C723.245 299.434 743.453 341.953 744.131 342.362L744.44 342.091ZM805.285 260.571C808.76 258.298 812.202 255.982 815.827 253.957C824.551 249.272 829.501 247.807 839.024 244.861L812.914 244.467C809.983 244.45 802.444 244.343 799.867 244.714C794.233 245.234 788.467 245.677 782.913 246.725C791.941 251.258 797.27 254.024 805.285 260.571ZM776.727 294.496C784.554 308.383 793.076 334.111 793.486 349.732C794.342 349.665 793.978 349.83 794.587 349.258C798.816 341.646 802.643 333.053 806.655 325.215C811.951 315.068 817.418 305.009 823.051 295.045C820.047 288.408 810.83 268.432 804.597 265.398C794.15 273.919 784.789 283.691 776.727 294.496ZM808.208 263.222C816.241 272.251 820.95 279.638 825.665 290.63L828.629 286.993C846.006 265.228 860.253 254.696 886.661 245.161C881.649 245.09 868.565 244.645 863.843 245.212C840.335 247.039 828.385 250.076 808.208 263.222ZM774.541 297.915C763.684 313.649 754.223 330.302 746.267 347.684C752.441 361.345 757.695 375.664 760.695 390.385C762.054 397.057 762.719 403.926 763.692 410.665C768.024 403.626 773.055 391.752 777.07 383.927C779.499 379.194 785.51 367.636 787.121 363.301C785.294 356.946 784.722 355.639 790.205 351.222C787.195 335.456 783.222 311.432 774.541 297.915ZM488.588 740.442C493.014 743.794 506.891 754.64 511.706 756.154C520.661 751.138 525.682 747.499 533.936 741.377C528.393 733.987 525.122 728.936 520.824 720.809C519.355 718.032 512.349 703.763 511.058 702.264C502.662 718.31 499.725 725.521 488.588 740.442ZM486.123 761.765C493.819 761.116 499.427 759.851 506.856 758.059C498.604 752.965 493.49 749.431 485.936 743.375C479.772 750.046 473.518 756.097 465.078 759.872C470.488 760.728 480.922 762.563 486.123 761.765ZM509.321 592.681C502.273 579.422 495.306 566.12 488.422 552.776C486.467 548.981 474.347 524.689 472.392 522.739C472.87 551.407 472.056 565.365 459.834 592.506C468.407 608.366 476.347 625.079 484.555 641.223C485.862 638.589 487.176 636.007 488.351 633.31C495.07 620.11 503.08 605.786 509.321 592.681ZM536.148 743.934C530.998 748.346 522.483 754.662 516.37 758.004C522.826 759.979 530.101 761.717 536.875 761.962C545.828 762.064 548.323 761.66 556.947 760.058C551.801 757.449 548.822 755.313 544.495 751.466C543.168 750.287 536.861 744.229 536.148 743.934ZM726.456 246.268C732.248 248.784 737.096 251.07 742.422 254.571C744.007 255.614 747.138 257.989 748.756 258.028L749.442 257.553C756.608 253.043 762.529 249.854 770.56 246.973C763.682 245.841 753.815 244.31 746.943 244.71C740.185 245.236 733.202 245.87 726.456 246.268ZM563.665 703.327C556.441 716.616 549.88 730.038 539.37 741.125C543.496 745.276 547.66 749.317 552.451 752.716C557.782 756.037 560.749 756.991 566.786 758.994C569.4 742.481 570.589 727.809 566.56 711.287C566.115 709.464 564.827 704.644 563.665 703.327ZM562.984 593.719C552.713 570.751 549.42 549.36 550.954 524.522C551.024 523.38 551.009 523.134 550.321 522.358C539.329 541.757 530.162 562.864 519.157 582.352C517.375 585.507 515.283 589.362 513.763 592.61C521.08 606.255 528.22 619.993 535.183 633.821L538.762 641.143C546.012 628.229 556.881 607.273 562.984 593.719ZM472.26 751.406C476.305 748.052 480.124 744.434 483.693 740.577C477.849 734.045 475.112 730.486 470.429 723.01C468.302 719.615 460.671 704.568 459.358 703.307C454.281 719.144 451.522 742.771 456.866 758.856C462.825 757.184 467.271 755.221 472.26 751.406ZM751.488 261.075C759.085 268.129 765.134 275.882 770.949 284.447C772.046 286.062 773.694 289.165 775.453 289.676L775.919 289.137C784.673 278.342 790.699 271.618 802.08 263.113C796.639 258.984 783.325 249.273 776.698 248.486C767.069 252.38 760.415 255.634 751.488 261.075ZM718.547 299.276C712.432 309.946 707.399 319.871 701.928 330.851C699.571 335.581 694.697 345.656 691.89 349.746L706.557 382.075C708.94 387.323 712.36 395.419 715.064 400.325C723.731 382.504 733.211 365.146 741.806 347.431C736.576 336.175 724.495 308.266 718.547 299.276ZM511.417 597.333C503.916 612.341 493.337 630.565 486.809 645.446L501.393 674.54C503.9 679.483 508.153 688.135 511.171 692.674L511.861 692.716C519.993 676.79 528.952 660.528 536.861 644.782C532.011 637.538 514.319 599.785 511.417 597.333ZM591.844 648.819C584.119 663.843 573.056 683.809 566.343 698.624C573.2 717.862 576.275 736.231 571.252 756.548C575.226 754.659 578.492 753.163 582.238 750.806C596.231 740.912 602.897 731.5 610.605 716.586C605.073 710.837 606.602 707.283 611.563 702.185C609.065 691.297 605.846 679.865 601.543 669.546C600.176 666.27 593.848 650.701 591.844 648.819ZM443.058 752.678C446.41 754.794 448.13 755.584 451.795 757.189C447.816 737.247 450.049 717.361 457.418 698.426C450.77 686.909 444.949 674.775 438.728 663.031C437.029 659.825 431.926 649.341 430.148 647.295C421.081 665.319 414.432 680.511 410.701 700.595C417.413 705.486 418.323 707.581 414.299 715.421C420.834 728.933 429.816 744.676 443.058 752.678Z"/><defs><linearGradient id="gradient_1" gradientUnits="userSpaceOnUse" x1="517.07776" y1="345.60464" x2="222.85295" y2="409.1098"><stop offset="0" stop-color="#6143E1"/><stop offset="1" stop-color="#15D0FF"/></linearGradient></defs><path fill="url(#gradient_1)" d="M190.465 288.022C187.383 285.412 181.495 277.744 177.533 274.021C160.664 258.254 139.217 248.263 116.294 245.493C112.032 244.991 106.895 244.627 102.555 245.033C99.9423 245.278 96.8924 247.871 94.1098 246.922C92.5161 246.384 91.2357 244.485 90.7048 242.941C89.6492 239.872 91.8204 237.985 94.6043 237.563C97.6815 237.097 99.3372 238.749 101.616 240.388C120.965 240.492 140.433 240.003 159.776 240.483C182.349 239.582 206.779 240.824 229.456 240.982C235.573 241.024 241.94 243.067 248.08 243.325C250.688 243.499 258.215 241.536 261.352 241.145C275.596 239.489 290.026 240.647 303.822 244.555C316.003 239.695 347.934 240.387 361.464 240.346C374.984 240.235 388.504 240.209 402.025 240.269L480.05 240.534C481.802 240.532 485.193 240.638 486.762 240.228C489.221 239.585 489.969 238.22 492.67 238.416C500.028 241.598 496.084 251.038 485.68 244.977C443.08 245.474 414.328 241.866 379.923 276.175C372.843 283.235 367.82 290.588 362.348 298.952C372.42 315.721 381.273 334.848 390.471 352.244C394.538 359.935 398.047 367.731 402.521 375.311C410.753 376.95 412.506 379.508 409.111 387.841C414.337 399.147 420.841 410.982 425.706 421.93L424.893 422.218C427.061 428.092 432.956 436.037 433.534 441.901C430.253 439.414 424.501 423.356 422.24 423.171C417.581 416.234 409.975 399.087 405.295 390.665C397.302 388.229 393.696 386.212 398.108 377.393C385.954 352.228 373.354 327.281 360.313 302.564C350.236 319.737 343.93 332.481 335.123 350.295L390.573 458.253L406.422 488.792C408.615 493.024 412.688 500.457 414.329 504.553C414.122 504.436 413.909 504.327 413.707 504.201C411.599 502.889 373.518 427.156 369.323 419.046C366.137 412.888 363.121 406.619 359.907 400.485C358.845 398.458 357.241 396.63 356.42 394.516C355.248 397.726 366.694 417.722 368.91 421.971L398.188 478.815C402.81 487.812 407.702 497.222 412.182 506.33C412.606 507.192 412.679 508.606 412.672 509.587C404.574 494.713 396.781 478.394 388.955 463.236L333.455 355.47C330.644 361.309 327.598 367.699 325.194 373.687C320.857 384.49 314.724 395.733 311.088 406.726C318.032 420.989 325.476 434.876 332.76 448.957L371.936 525.279C377.281 535.827 384.464 548.395 389.206 558.88C385.212 556.656 385.587 551.416 382.835 548.745L382.229 549.05C382.219 549.664 382.093 550.287 382.2 550.891C382.331 551.622 412.793 611.58 414.955 614.558C415.533 615.355 415.717 615.94 415.92 616.886L415.22 617.325C413.883 615.531 407.642 602.97 406.196 600.161L385.911 560.79L337.735 467.328L320.502 433.795C317.219 427.429 311.704 417.336 309.28 410.882C297.042 443.563 297.766 469.182 307.427 502.048C305.762 503.602 304.728 503.168 303.055 504.189C299.528 499.796 293.964 488.022 291.357 482.68L277.558 454.502C262.815 424.83 246.823 395.211 233.017 365.131C223.969 365.287 222.604 359.917 225.969 352.541C217.059 336.379 210.146 319.052 200.522 303.244C197.319 297.983 193.992 293.073 190.465 288.022ZM203.265 288.097C202.537 290.392 201.741 292.028 200.746 294.199C212.494 312.822 220.241 330.961 230.144 350.221C232.647 334.4 238.772 308.674 247.708 295.756C237.277 281.916 232.068 276.018 218.803 264.842C211.649 273.377 208.609 278.559 203.265 288.097ZM221.489 262.359C228.169 267.794 232.707 271.682 238.549 278.224C242.367 282.499 246.167 287.912 249.821 291.92C256.119 280.551 264.508 271.547 273.197 262.071C264.247 255.805 257.419 252.585 247.427 248.246L241.129 250.889C233.663 254.253 228.1 257.412 221.489 262.359ZM239.389 247.789L241.27 246.755C232.329 244.081 209.927 244.867 200.28 244.887C196.932 244.894 191.387 244.651 188.253 244.841C197.494 248.63 211.2 253.608 218.804 260.142C224.896 255.787 232.327 250.117 239.389 247.789ZM197.943 290.865C199.807 286.731 201.335 283.226 203.635 279.292C207.347 273.275 210.769 268.21 215.924 263.284C202.44 253.341 182.216 245.484 165.336 245.035C156.49 244.799 146.734 245.024 137.868 245.223C142.543 247.256 147.103 248.777 151.801 250.944C165.151 257.054 177.084 265.875 186.842 276.845C190.964 281.541 194.123 286.364 197.943 290.865ZM297.048 482.605L298.839 485.831C294.727 456.445 295.401 435.223 306.821 407.219C300.138 393.844 293.341 380.525 286.433 367.264C285.265 365.033 280.275 355.174 278.979 353.726C272.3 370.58 262.843 394.401 263.299 412.455C263.432 417.73 276.095 441.294 279.254 447.543C285.051 459.298 290.983 470.986 297.048 482.605ZM331.378 350.56C327.631 345.297 325.104 339.492 322.138 333.834C316.424 322.936 310.963 310.214 304.564 299.788C297.819 311.97 286.22 335.551 281.153 348.599C290.057 366.425 299.503 383.998 308.556 401.75C310.058 399.891 315.737 386.087 317.059 383.051L331.378 350.56ZM233.862 351.529C238.327 355.904 238.364 357.403 237.495 363.598L250.895 390.916C253.311 395.897 256.568 403.293 259.261 407.739L259.827 407.678C261.273 387.868 269.041 367.176 276.953 349.083C269.833 335.396 263.811 321.154 255.953 307.86C254.955 306.171 251.335 300.071 250.281 298.888C240.93 318.919 237.425 329.772 233.862 351.529ZM328.387 262.855C323.888 259.903 307.346 249.021 302.865 248.986C293.012 253.276 288.556 255.666 279.536 261.942C285.987 267.662 291.348 273.153 296.417 280.182C297.592 281.811 304.084 290.933 304.966 291.297C312.887 279.324 317.565 272.609 328.387 262.855ZM252.319 295.406C264.498 312.852 269.04 327.844 278.789 344.564C286.136 329.1 294.149 310.158 302.717 295.778C298.042 289.062 283.015 267.001 276.906 264.347C266.075 275.157 260.117 282.036 252.319 295.406ZM309.522 246.94C317.858 251.192 324.477 254.523 331.877 260.495C334.29 258.703 336.336 257.146 338.918 255.596C347.962 250.363 353.598 248.076 363.353 244.482C355.279 244.792 336.471 243.859 330.108 244.717C322.945 245.145 316.614 245.512 309.522 246.94ZM306.977 295.758C310.44 302.367 330.591 343.398 333.254 345.745C341.559 329.607 349.1 314.609 358.169 298.748C350.528 286.619 342.78 274.146 331.511 264.998C321.815 273.943 313.542 284.316 306.977 295.758ZM252.596 246.652C262.042 250.136 267.924 253.822 276.341 259.283L281.445 255.75C287.295 252.024 292.066 249.594 298.341 246.617C293.75 246.575 289.306 245.68 284.736 245.232C278.844 244.655 272.868 244.741 266.97 245.202C262.696 245.649 256.733 246.453 252.596 246.652ZM394.846 244.763C368.981 245.072 357.163 249.15 334.997 262.701C341.562 269.17 345.64 273.363 351.241 280.953C354.318 285.122 357.352 290.405 360.196 294.181C360.456 294.031 360.716 293.881 360.977 293.73C376.585 270.677 396.707 251.804 424.386 244.868C414.984 244.611 404.227 244.333 394.846 244.763Z"/><path fill="#04E5FB" d="M190.465 288.022C187.383 285.412 181.495 277.744 177.533 274.021C160.664 258.254 139.217 248.263 116.294 245.493C112.032 244.991 106.895 244.627 102.555 245.033C99.9423 245.278 96.8924 247.871 94.1098 246.922C92.5161 246.384 91.2357 244.485 90.7048 242.941C89.6492 239.872 91.8204 237.985 94.6043 237.563C97.6815 237.097 99.3372 238.749 101.616 240.388C120.965 240.492 140.433 240.003 159.776 240.483C164.068 242.119 181.79 241.75 187.316 241.789C186.812 243.165 186.79 243.419 186.889 244.882L188.253 244.841C197.494 248.63 211.2 253.608 218.804 260.142C224.896 255.787 232.327 250.117 239.389 247.789L239.489 248.542L238.351 249.583C239.346 250.568 239.763 250.526 241.129 250.889C233.663 254.253 228.1 257.412 221.489 262.359C228.169 267.794 232.707 271.682 238.549 278.224C242.367 282.499 246.167 287.912 249.821 291.92C249.379 293.76 249.281 294.516 247.708 295.756C237.277 281.916 232.068 276.018 218.803 264.842C211.649 273.377 208.609 278.559 203.265 288.097C199.926 289.436 199.804 293.097 201.077 296.041C201.764 297.593 202.517 299.115 203.333 300.604C201.299 300.627 201.619 298.156 200.213 299.101L200.778 301.239C198.432 299.357 194.154 289.649 191.345 287.819L190.465 288.022ZM197.943 290.865C199.807 286.731 201.335 283.226 203.635 279.292C207.347 273.275 210.769 268.21 215.924 263.284C202.44 253.341 182.216 245.484 165.336 245.035C156.49 244.799 146.734 245.024 137.868 245.223C142.543 247.256 147.103 248.777 151.801 250.944C165.151 257.054 177.084 265.875 186.842 276.845C190.964 281.541 194.123 286.364 197.943 290.865Z"/><path fill="#278FEE" d="M332.003 552.484C334.505 557.417 341.498 570.421 343.315 575.324C339.935 574.42 340.995 568.594 336.896 567.069C336.294 570.737 341.803 578.267 342.449 582.042L341.847 582.09C338.979 577.877 330.947 560.815 328.326 555.514C329.62 553.506 329.904 553.391 332.003 552.484Z"/><path fill="#08C5F9" d="M660.123 297.718C657.379 293.308 654.655 288.77 651.616 284.608C625.543 248.904 590.284 243.846 548.951 244.775C547.627 244.9 541.908 244.681 541.252 245.031C534.975 248.381 529.308 247.983 531.557 239.189C531.841 238.08 532.763 237.711 533.877 237.2C537.025 237.254 537.875 237.945 540.285 240.055L540.78 240.496L634.554 240.49L671.634 240.463C689.013 240.463 705.549 239.766 722.452 244.452C722.87 246.328 721.813 246.655 722.245 248.873C711.599 250.955 704.298 256.373 695.504 262.384C697.556 264.444 700.915 267.633 702.65 269.784C701.498 271.043 701.275 271.173 700.477 272.724C697.914 269.997 695.374 267.227 692.644 264.669C680.717 275.862 673.443 283.834 664.456 297.683C671.083 309.469 682.395 329.552 687.874 342.033L685.498 341.799C684.735 342.774 684.828 342.85 684.566 344.09C677.684 329.559 670.92 314.974 662.505 301.242L625.882 373.84C623.844 373.837 623.945 373.806 622.093 372.871C629.589 357.524 637.241 342.254 645.047 327.062C650.008 317.282 654.809 307.282 660.123 297.718ZM662.624 294.201C666.367 288.578 670.13 282.994 674.492 277.819C679.191 272.359 684.221 267.193 689.552 262.348C657.512 240.986 636.704 244.434 599.706 244.524C605.179 246.582 611.211 248.351 616.412 250.751C637.798 260.618 650.257 274.942 662.624 294.201ZM691.975 259.858C696.789 256.6 700.786 253.901 705.862 251.029C709.085 249.403 712.334 247.833 715.61 246.318C695.919 244.2 683.643 244.459 663.712 244.546C674.382 248.954 682.827 252.57 691.975 259.858Z"/><path fill="#0EAAF3" d="M307.427 502.048C311.715 506.065 321.667 501.052 315.144 517.598C320.517 530.407 326.527 540.519 332.003 552.484C329.904 553.391 329.62 553.506 328.326 555.514C322.438 543.776 316.479 531.551 310.319 519.995C300.374 516.697 300.032 513.741 303.055 504.189C304.728 503.168 305.762 503.602 307.427 502.048Z"/><path fill="#08C5F9" fill-opacity="0.98823529" d="M614.161 388.432L617.27 390.187L576.662 471.057C575.509 469.531 575.141 469.393 573.578 468.383C582.289 451.282 590.859 434.11 599.286 416.868C603.751 407.941 609.008 396.845 614.161 388.432Z"/><path fill="#0EAAF3" d="M614.161 388.432C612.793 385.758 610.285 384.379 610.86 380.981C611.742 375.774 619.301 375.339 622.093 372.871C623.945 373.806 623.844 373.837 625.882 373.84C622.274 381.187 634.073 387.136 617.27 390.187L614.161 388.432Z"/><path fill="#278FEE" d="M563.419 488.184C566.599 481.808 570.093 474.533 573.578 468.383C575.141 469.393 575.509 469.531 576.662 471.057C573.657 477.151 570.562 483.2 567.378 489.201C565.703 488.081 565.528 488.171 563.419 488.184Z"/><path fill="#0EAAF3" d="M700.477 272.724C701.275 271.173 701.498 271.043 702.65 269.784C704.12 271.369 706.114 273.395 707.395 275.068C706.21 276.764 706.102 276.849 705.624 278.818C704.052 276.819 702.148 274.683 700.477 272.724Z"/></svg>